HIERARCHY
ROOT Hips
{
	OFFSET -13.091600 -28.302996 44.698402
	CHANNELS 6 Xposition Yposition Zposition Zrotation Xrotation Yrotation
	JOINT Chest
	{
		OFFSET -0.673000 0.623899 5.369202
		CHANNELS 6 Xposition Yposition Zposition Zrotation Xrotation Yrotation
		JOINT Chest2
		{
			OFFSET 0.000000 0.000000 4.415001
			CHANNELS 6 Xposition Yposition Zposition Zrotation Xrotation Yrotation
			JOINT Neck
			{
				OFFSET 0.000000 0.000002 10.273300
				CHANNELS 6 Xposition Yposition Zposition Zrotation Xrotation Yrotation
				JOINT Head
				{
					OFFSET 0.000000 0.000000 2.173897
					CHANNELS 6 Xposition Yposition Zposition Zrotation Xrotation Yrotation
					End Site
					{
						OFFSET 0.000000 0.000000 9.961800
					}
				}
			}
			JOINT LeftCollar
			{
				OFFSET 2.359900 -0.565201 5.928101
				CHANNELS 6 Xposition Yposition Zposition Zrotation Xrotation Yrotation
				JOINT LeftShoulder
				{
					OFFSET 5.443700 0.000000 0.000000
					CHANNELS 6 Xposition Yposition Zposition Zrotation Xrotation Yrotation
					JOINT LeftElbow
					{
						OFFSET 0.000000 0.000000 -10.615799
						CHANNELS 6 Xposition Yposition Zposition Zrotation Xrotation Yrotation
						JOINT LeftWrist
						{
							OFFSET 0.000000 -0.000002 -13.110302
							CHANNELS 6 Xposition Yposition Zposition Zrotation Xrotation Yrotation
							End Site
							{
								OFFSET 0.000000 0.000000 -2.173901
							}
						}
					}
				}
			}
			JOINT RightCollar
			{
				OFFSET -2.636600 -1.718800 6.889698
				CHANNELS 6 Xposition Yposition Zposition Zrotation Xrotation Yrotation
				JOINT RightShoulder
				{
					OFFSET -4.139101 0.000000 0.000000
					CHANNELS 6 Xposition Yposition Zposition Zrotation Xrotation Yrotation
					JOINT RightElbow
					{
						OFFSET 0.000000 0.000000 -10.471802
						CHANNELS 6 Xposition Yposition Zposition Zrotation Xrotation Yrotation
						JOINT RightWrist
						{
							OFFSET 0.000000 0.000000 -12.281898
							CHANNELS 6 Xposition Yposition Zposition Zrotation Xrotation Yrotation
							End Site
							{
								OFFSET 0.000000 -0.000002 -2.173901
							}
						}
					}
				}
			}
		}
	}
	JOINT LeftHip
	{
		OFFSET 2.273400 0.176701 -2.518002
		CHANNELS 6 Xposition Yposition Zposition Zrotation Xrotation Yrotation
		JOINT LeftKnee
		{
			OFFSET 0.000000 -0.000002 -20.456402
			CHANNELS 6 Xposition Yposition Zposition Zrotation Xrotation Yrotation
			JOINT LeftAnkle
			{
				OFFSET 0.000000 -0.000002 -16.635300
				CHANNELS 6 Xposition Yposition Zposition Zrotation Xrotation Yrotation
				End Site
				{
					OFFSET 0.000000 -8.812399 0.000001
				}
			}
		}
	}
	JOINT RightHip
	{
		OFFSET -1.914800 0.018101 -2.699299
		CHANNELS 6 Xposition Yposition Zposition Zrotation Xrotation Yrotation
		JOINT RightKnee
		{
			OFFSET 0.000000 -0.000002 -20.148901
			CHANNELS 6 Xposition Yposition Zposition Zrotation Xrotation Yrotation
			JOINT RightAnkle
			{
				OFFSET 0.000000 -0.000002 -16.838301
				CHANNELS 6 Xposition Yposition Zposition Zrotation Xrotation Yrotation
				End Site
				{
					OFFSET 0.000000 -8.328398 0.000001
				}
			}
		}
	}
}
MOTION
Frames: 10
Frame Time: 0.041667
-22.579500 9.556505 9.888401 1805.702356 -9.526855 -22.510984 -0.673001 0.623897 5.369210 -9.111569 7.887875 18.747151 0.000002 0.000002 4.415006 -5.561026 -8.131425 -1.554880 0.000002 0.000000 10.273302 53.286336 -3.138443 -11.642338 -0.000001 -0.000006 2.173902 3.169033 -3.666711 5.914747 2.359901 -0.565202 5.928103 2.591635 0.353780 10.960115 5.443693 -0.000004 0.000000 -13.724327 -12.209672 -82.987536 0.000004 0.000000 -10.615797 614.262626 -148.941373 194.706932 -0.000001 -0.000006 -13.110294 -1049.960175 -10.036430 -18.894287 -2.636604 -1.718804 6.889698 169.861559 -178.304124 183.499890 -4.139103 0.000000 -0.000005 445.431142 -407.244674 525.975328 -0.000002 -0.000002 -10.471796 -45.698596 -21.233938 -383.755244 -0.000002 0.000001 -12.281901 357.941391 5.194741 55.307429 2.273397 0.176704 -2.518002 -32.001933 -160.660024 -87.341918 0.000001 -0.000006 -20.456394 -2.120446 192.907287 -109.060704 -0.000009 -0.000009 -16.635292 65.230970 38.265056 94.603577 -1.914799 0.018109 -2.699301 42.064710 200.263155 77.646929 0.000000 0.000000 -20.148907 -1.814740 -199.527816 17.319896 -0.000001 -0.000004 -16.838305 378.925262 41.255412 -114.211828
-22.538401 9.617998 9.860794 1805.898519 -9.662124 -22.136766 -0.672999 0.623897 5.369209 -9.334474 8.067645 18.488202 0.000001 -0.000002 4.415005 -5.431359 -8.218959 -1.559583 0.000004 0.000000 10.273300 53.101992 -3.152873 -11.704360 0.000001 -0.000006 2.173901 3.046411 -3.728668 5.933431 2.359902 -0.565205 5.928103 2.461689 0.468793 10.839489 5.443694 -0.000002 0.000002 -13.774527 -11.858889 -82.999373 0.000002 -0.000001 -10.615790 614.363495 -149.270861 194.404956 -0.000000 -0.000007 -13.110298 -1049.993616 -10.036563 -18.801720 -2.636601 -1.718805 6.889701 169.632925 -178.270519 183.427462 -4.139101 0.000002 -0.000002 446.251092 -407.159543 526.180835 0.000001 -0.000004 -10.471799 -45.457887 -21.229276 -383.668583 -0.000001 0.000005 -12.281898 358.261180 5.147971 55.282219 2.273400 0.176707 -2.518003 -32.008008 -160.491919 -86.966845 0.000001 -0.000008 -20.456402 -1.847621 192.961013 -109.031000 -0.000006 -0.000008 -16.635294 65.260921 38.250285 94.652741 -1.914800 0.018104 -2.699299 42.053936 200.218827 77.539367 0.000000 0.000002 -20.148907 -1.854327 -199.583373 17.365469 -0.000002 -0.000002 -16.838303 379.409003 40.909189 -114.936019
-22.497101 9.680201 9.835403 1806.142658 -9.845904 -21.828385 -0.673000 0.623895 5.369211 -9.626008 8.260429 18.301588 0.000002 -0.000001 4.415006 -5.264081 -8.296207 -1.558636 -0.000003 0.000005 10.273302 52.903913 -3.126396 -11.775272 0.000002 -0.000003 2.173902 2.901115 -3.814612 5.973473 2.359900 -0.565203 5.928106 2.194825 0.677371 10.805073 5.443691 -0.000005 0.000000 -13.746442 -11.547382 -83.121244 0.000001 0.000001 -10.615797 614.586869 -149.667190 194.137363 -0.000001 -0.000006 -13.110299 -1050.092954 -10.061653 -18.654438 -2.636604 -1.718803 6.889702 169.435560 -178.312429 183.246107 -4.139102 0.000004 0.000005 446.898321 -406.898930 526.348147 -0.000000 0.000001 -10.471804 -45.323223 -21.219118 -383.577003 -0.000004 -0.000002 -12.281893 358.578183 5.103805 55.261305 2.273396 0.176705 -2.517999 -32.097610 -160.295592 -86.692572 0.000002 -0.000004 -20.456398 -1.485930 192.951615 -109.001473 -0.000009 -0.000008 -16.635292 65.246673 38.219686 94.699009 -1.914799 0.018105 -2.699298 41.969699 200.208499 77.350451 0.000002 -0.000002 -20.148905 -2.058223 -199.596952 17.511089 -0.000002 -0.000002 -16.838303 380.137402 40.483201 -116.028289
-22.450802 9.743307 9.808899 1806.357180 -10.037318 -22.027138 -0.673002 0.623900 5.369209 -9.961993 8.381224 18.608108 0.000001 -0.000003 4.415010 -5.081344 -8.365278 -1.555246 0.000002 0.000001 10.273303 52.759130 -3.089965 -11.859762 0.000001 -0.000002 2.173899 3.008433 -3.744205 5.602756 2.359897 -0.565200 5.928097 1.882736 0.913559 10.752865 5.443692 -0.000003 -0.000000 -13.651827 -11.322092 -83.236742 0.000005 -0.000001 -10.615795 614.823904 -150.161886 193.889386 -0.000000 -0.000006 -13.110296 -1050.307367 -10.088089 -18.511423 -2.636600 -1.718801 6.889703 169.268002 -178.372589 183.091772 -4.139096 0.000001 0.000001 447.493313 -406.615122 526.507810 0.000002 0.000002 -10.471800 -45.139706 -21.227692 -383.537252 -0.000004 0.000002 -12.281897 358.801093 5.042820 55.353858 2.273397 0.176700 -2.518001 -32.303895 -160.411241 -86.884398 0.000003 -0.000002 -20.456400 -1.173768 192.958117 -108.971987 -0.000006 -0.000012 -16.635288 65.246113 38.168982 94.773902 -1.914800 0.018102 -2.699299 41.764319 200.499342 76.720318 -0.000001 -0.000006 -20.148909 -2.505436 -199.538745 17.779418 -0.000003 -0.000000 -16.838305 381.249494 39.962470 -117.648601
-22.399101 9.803308 9.778904 1806.510832 -10.229568 -21.830432 -0.672999 0.623898 5.369207 -10.189993 8.603739 18.533956 0.000002 -0.000002 4.415004 -4.916244 -8.432428 -1.555280 0.000004 0.000004 10.273300 52.628178 -3.081147 -11.936878 -0.000001 -0.000003 2.173901 2.943906 -3.774481 5.557870 2.359900 -0.565198 5.928102 1.639601 1.121857 10.718188 5.443695 -0.000001 -0.000001 -13.607927 -11.191530 -83.436976 0.000003 -0.000000 -10.615791 614.861607 -150.801220 193.525077 -0.000002 -0.000005 -13.110297 -1050.621993 -10.140358 -18.260811 -2.636598 -1.718801 6.889704 169.152066 -178.470411 182.839492 -4.139110 -0.000001 0.000001 448.122510 -406.223944 526.712934 -0.000001 -0.000004 -10.471797 -44.889878 -21.205203 -383.333111 0.000001 -0.000001 -12.281900 358.985945 4.940374 55.354923 2.273397 0.176709 -2.518002 -32.298752 -160.393387 -86.714231 0.000003 -0.000006 -20.456398 -0.958188 193.028099 -108.930241 -0.000008 -0.000008 -16.635292 65.280168 38.080501 94.886006 -1.914799 0.018104 -2.699301 41.714889 200.505899 76.365374 -0.000000 -0.000002 -20.148907 -3.310552 -199.380380 18.203887 -0.000001 -0.000004 -16.838306 384.673904 41.037385 -113.959603
-22.342701 9.860308 9.747105 1806.578697 -10.465221 -21.370830 -0.673000 0.623902 5.369206 -10.321932 8.964412 18.212208 -0.000001 0.000000 4.414996 -4.756087 -8.492891 -1.555631 0.000001 0.000000 10.273303 52.522956 -3.114917 -11.993992 -0.000001 -0.000003 2.173898 2.917701 -3.754473 5.545361 2.359896 -0.565201 5.928101 1.495441 1.254014 10.592722 5.443692 -0.000006 -0.000000 -13.601435 -10.989499 -83.597643 0.000002 -0.000001 -10.615793 614.983348 -151.591609 193.168883 0.000000 -0.000007 -13.110296 -1051.090162 -10.251509 -17.976093 -2.636605 -1.718800 6.889699 169.035420 -178.513783 182.645570 -4.139098 0.000002 -0.000003 448.607016 -405.879456 526.750800 -0.000004 -0.000002 -10.471796 -44.717307 -21.180111 -383.128916 -0.000002 -0.000004 -12.281891 359.128614 4.854655 55.367870 2.273396 0.176707 -2.518003 -32.135296 -160.218876 -86.317752 0.000004 -0.000005 -20.456398 -0.800020 193.159348 -108.885421 -0.000009 -0.000007 -16.635296 65.339236 38.008869 94.967845 -1.914800 0.018108 -2.699302 41.808657 200.375388 76.226660 0.000001 -0.000005 -20.148905 -4.629489 -199.082297 18.839670 -0.000000 -0.000001 -16.838305 391.209904 45.916257 -101.318056
-22.284300 9.918402 9.713097 1806.621208 -10.671921 -20.937334 -0.672999 0.623897 5.369207 -10.418625 9.307840 17.899790 -0.000003 0.000005 4.415006 -4.550667 -8.557503 -1.552113 0.000003 0.000001 10.273300 52.400084 -3.122102 -12.019527 0.000001 -0.000005 2.173909 2.905317 -3.739354 5.536141 2.359900 -0.565203 5.928094 1.273717 1.464285 10.535615 5.443693 0.000000 0.000002 -13.586074 -10.960600 -83.912965 0.000007 0.000002 -10.615795 614.974715 -152.584882 192.713760 -0.000001 -0.000007 -13.110298 -1051.670782 -10.343524 -17.643697 -2.636603 -1.718802 6.889699 168.949920 -178.626099 182.390612 -4.139100 0.000001 0.000001 449.381614 -405.466394 527.083349 -0.000002 -0.000003 -10.471795 -44.345276 -21.175776 -383.074766 -0.000006 -0.000003 -12.281896 359.218281 4.805394 55.537566 2.273398 0.176701 -2.518004 -31.931411 -160.059787 -85.932700 0.000003 -0.000002 -20.456400 -0.619740 193.289149 -108.848217 -0.000007 -0.000009 -16.635292 65.387040 37.957308 95.024447 -1.914800 0.018098 -2.699298 41.921652 200.230096 76.005396 -0.000000 -0.000006 -20.148911 -6.438313 -198.620808 19.684728 0.000000 -0.000005 -16.838305 380.881510 67.975880 -25.769023
-22.219099 9.976404 9.673992 1806.542743 -10.890669 -20.670939 -0.673001 0.623893 5.369209 -10.433608 9.689749 17.737994 0.000001 -0.000001 4.415001 -4.377005 -8.617132 -1.550221 0.000005 -0.000001 10.273305 52.252460 -3.153638 -11.992667 0.000001 -0.000005 2.173900 2.940339 -3.705234 5.510785 2.359898 -0.565202 5.928103 1.232567 1.541374 10.301685 5.443693 -0.000005 -0.000004 -13.639417 -10.765423 -84.095454 0.000003 0.000001 -10.615793 614.889365 -153.739594 192.116255 -0.000001 -0.000004 -13.110294 -1052.201242 -10.377017 -17.258006 -2.636605 -1.718803 6.889702 168.870266 -178.646152 182.297817 -4.139101 -0.000003 0.000004 450.428983 -405.231244 527.487914 0.000000 0.000000 -10.471798 -43.902523 -21.246811 -382.936386 -0.000002 -0.000003 -12.281890 359.443268 4.860794 55.593727 2.273394 0.176696 -2.518002 -31.643423 -160.038736 -85.680379 -0.000000 -0.000006 -20.456396 -0.527933 193.469835 -108.781500 -0.000008 -0.000007 -16.635292 65.466796 37.907126 95.055340 -1.914799 0.018096 -2.699300 42.100866 200.207994 75.643498 0.000000 -0.000005 -20.148903 -8.702412 -197.933473 20.712689 0.000001 -0.000004 -16.838299 351.654393 66.592343 37.519301
-22.153603 10.035105 9.634499 1806.501762 -11.036582 -20.389288 -0.672999 0.623897 5.369209 -10.457305 10.009962 17.551279 0.000001 -0.000001 4.415002 -4.206860 -8.710709 -1.554559 0.000004 0.000002 10.273300 52.086548 -3.180993 -11.950025 0.000001 -0.000003 2.173898 2.985341 -3.645846 5.481918 2.359896 -0.565205 5.928104 1.252607 1.615689 10.131792 5.443695 0.000000 -0.000001 -13.766922 -10.532293 -84.427811 0.000002 -0.000001 -10.615793 614.722708 -155.094021 191.361164 0.000000 -0.000009 -13.110296 -1052.649521 -10.329979 -16.732801 -2.636602 -1.718802 6.889700 168.770368 -178.689811 182.137854 -4.139097 -0.000001 -0.000003 451.769612 -404.918940 527.979251 0.000000 -0.000005 -10.471793 -43.273053 -21.246885 -382.740360 -0.000001 -0.000003 -12.281898 359.806743 4.823424 55.648980 2.273395 0.176700 -2.518002 -31.332769 -160.098733 -85.368137 0.000003 -0.000007 -20.456402 -0.383703 193.563763 -108.680884 -0.000008 -0.000010 -16.635290 65.501623 37.850313 95.174328 -1.914799 0.018100 -2.699298 42.255242 200.130540 75.183505 0.000002 -0.000007 -20.148907 -11.411317 -197.005960 21.927284 0.000000 -0.000003 -16.838308 354.136484 62.938165 43.273978
-22.091799 10.099504 9.598701 1806.536077 -11.254113 -20.165876 -0.673000 0.623896 5.369210 -10.583734 10.357642 17.413583 0.000001 0.000000 4.415001 -3.988363 -8.781447 -1.549039 0.000003 0.000001 10.273300 51.890494 -3.175155 -11.865685 0.000001 -0.000008 2.173902 3.025271 -3.614256 5.446011 2.359900 -0.565199 5.928102 1.241046 1.701789 9.930719 5.443695 0.000000 0.000002 -13.865106 -10.240153 -84.739459 0.000002 0.000001 -10.615793 614.597907 -156.441317 190.443979 0.000000 -0.000011 -13.110294 -1052.808528 -9.996896 -16.121893 -2.636602 -1.718804 6.889708 168.750957 -178.743482 182.106244 -4.139097 -0.000003 -0.000003 452.689393 -404.620816 528.221422 -0.000002 0.000000 -10.471794 -42.921827 -21.275264 -382.531329 -0.000003 0.000001 -12.281898 360.338897 4.789516 55.717582 2.273395 0.176700 -2.518003 -31.171829 -160.075223 -85.163791 0.000001 -0.000006 -20.456394 -0.091094 193.484656 -108.558480 -0.000004 -0.000008 -16.635292 65.448444 37.801853 95.354850 -1.914799 0.018097 -2.699297 42.329807 200.131086 74.665702 0.000002 -0.000007 -20.148899 -14.442257 -195.837834 23.289919 0.000001 -0.000007 -16.838305 360.298872 59.762632 39.515154
